<?xml version="1.0" encoding="UTF-8" standalone="no"?>
<svg
   version="1.0"
   width="118.000000pt"
   height="118.000000pt"
   viewBox="0 0 118.000000 118.000000"
   preserveAspectRatio="xMidYMid meet"
   id="svg874"
   xmlns="http://www.w3.org/2000/svg"
   xmlns:svg="http://www.w3.org/2000/svg">
  <defs
     id="defs878" />
  <metadata
     id="metadata868">
Created by potrace 1.10, written by Peter Selinger 2001-2011
</metadata>
  <g
     transform="matrix(0.05,0,0,-0.0509464,-2.3770792e-8,120.03786)"
     fill="#e1195f"
     stroke="none"
     id="g872">
    <path
       d="M 299.99999,2356.1597 C 102.30839,2356.1597 4.7541584e-7,2196.1927 4.7541584e-7,2061.7327 V 334.42715 C 4.7541584e-7,182.94339 116.05715,40.000079 299.99999,40.000079 H 2359.9999 l 2.653,332.991651 L 1300,373.68412 c 0,0 -242.6529,0.69238 -240,235.54166 V 789.86362 L 836.50555,789.17123 C 467.22447,789.86362 467.22446,937.44022 682.67679,1303.6824 933.90947,1730.7466 1060,1892.934 1180,1892.934 c 120,0 240.4273,-163.7474 494.3712,-590.2545 217.4649,-365.23928 217.4649,-512.81588 -90.8745,-512.81588 l -283.4967,0 V 609.22578 H 2359.9999 V 2061.7327 c 0,126.1166 -73.525,294.427 -300,294.427 z"
       id="path870" />
  </g>
</svg>
